<?xml version="1.0" encoding="utf-8"?>
<!-- Generator: Adobe Illustrator 19.2.1, SVG Export Plug-In . SVG Version: 6.00 Build 0)  -->
<svg version="1.1" id="Layer_1" xmlns="http://www.w3.org/2000/svg" xmlns:xlink="http://www.w3.org/1999/xlink" x="0px" y="0px"
	 viewBox="0 0 715.7 112.9" style="enable-background:new 0 0 715.7 112.9;" xml:space="preserve">
<style type="text/css">
	.st0{fill:#FFFFFF;}
</style>
<path id="CHANEL_logo" class="st0" d="M152.3,41.4V1.6h-21.5v109.4h21.5V64.4H205v46.7h21.6V1.6h-21.6v39.8L152.3,41.4z M601.5,1.6
	h-78.1v109.4h83.2v-21h-61V66.5h49.6V44.4h-49.6V22.8h55.8L601.5,1.6z M469.1,111.1h17.4V1.7H465V67L418,1.7h-28.2v109.4h21V29.9
	L469.1,111.1z M292.3,1.7h29.4l48.6,109.4H346l-10.9-24.3h-57.8l-10.9,24.3h-23.1L292.3,1.7z M306.4,21.5l-19.2,43.4h38.3
	L306.4,21.5z M658.1,1.6l-22.2,0v109.4h79.8v-21h-57.6V1.6z M107.1,81.4c-13.8,28-47.6,39.5-75.6,25.7S-7.9,59.5,5.8,31.5
	C19.6,3.5,53.4-7.9,81.4,5.8c10.3,5.1,18.8,13.2,24.4,23.2L87.1,39.6c-6.2-11.2-18.1-18.1-30.9-17.9C37,21.8,21.6,37.6,21.7,56.8
	c0.1,19,15.5,34.4,34.6,34.6c13.5,0,25.8-7.9,31.5-20.1L107.1,81.4z"/>
</svg>
